<svg width="40" height="40" viewBox="0 0 40 40" fill="none" xmlns="http://www.w3.org/2000/svg">
<path d="M34.9987 30.4997V19.4997C35.9987 18.9997 36.6654 17.833 36.6654 16.6663C36.6654 14.833 35.1654 13.333 33.332 13.333C32.1654 13.333 30.9987 13.9997 30.4987 14.9997H24.9987V9.49967C25.9987 8.99967 26.6654 7.83301 26.6654 6.66634C26.6654 4.83301 25.1654 3.33301 23.332 3.33301C22.1654 3.33301 20.9987 3.99967 20.4987 4.99967H9.4987C8.9987 3.99967 7.83203 3.33301 6.66536 3.33301C4.83203 3.33301 3.33203 4.83301 3.33203 6.66634C3.33203 7.83301 3.9987 8.99967 4.9987 9.49967V20.4997C3.9987 20.9997 3.33203 22.1663 3.33203 23.333C3.33203 25.1663 4.83203 26.6663 6.66536 26.6663C7.83203 26.6663 8.9987 25.9997 9.4987 24.9997H14.9987V30.4997C13.9987 30.9997 13.332 32.1663 13.332 33.333C13.332 35.1663 14.832 36.6663 16.6654 36.6663C17.832 36.6663 18.9987 35.9997 19.4987 34.9997H30.4987C30.9987 35.9997 32.1654 36.6663 33.332 36.6663C35.1654 36.6663 36.6654 35.1663 36.6654 33.333C36.6654 32.1663 35.9987 30.9997 34.9987 30.4997ZM9.4987 21.6663C9.16536 21.1663 8.83203 20.833 8.33203 20.4997V9.49967C8.83203 9.16634 9.16536 8.83301 9.4987 8.33301H20.4987C20.832 8.83301 21.1654 9.16634 21.6654 9.49967V14.9997H19.4987C18.9987 13.9997 17.832 13.333 16.6654 13.333C14.832 13.333 13.332 14.833 13.332 16.6663C13.332 17.833 13.9987 18.9997 14.9987 19.4997V21.6663H9.4987ZM21.6654 20.4997C21.1654 20.833 20.832 21.1663 20.4987 21.6663H18.332V19.4997C18.832 19.1663 19.1654 18.833 19.4987 18.333H21.6654V20.4997ZM20.4987 24.9997C20.9987 25.9997 22.1654 26.6663 23.332 26.6663C25.1654 26.6663 26.6654 25.1663 26.6654 23.333C26.6654 22.1663 25.9987 20.9997 24.9987 20.4997V18.333H30.4987C30.832 18.833 31.1654 19.1663 31.6654 19.4997V30.4997C31.1654 30.833 30.832 31.1663 30.4987 31.6663H19.4987C19.1654 31.1663 18.832 30.833 18.332 30.4997V24.9997H20.4987Z" fill="#F28774"/>
</svg>
