<svg width="20" height="20" viewBox="0 0 20 20" fill="none" xmlns="http://www.w3.org/2000/svg">
<path d="M6.11468 6.15758C6.11484 5.90914 6.2136 5.67092 6.38927 5.49525C6.56494 5.31958 6.80316 5.22082 7.0516 5.22066L14.5646 5.22066C14.813 5.22082 15.0513 5.31958 15.2269 5.49525C15.4026 5.67092 15.5014 5.90914 15.5015 6.15758L15.5015 13.6706C15.4928 13.9134 15.3903 14.1433 15.2156 14.3121C15.0409 14.4809 14.8075 14.5754 14.5646 14.5757C14.3217 14.5754 14.0883 14.4809 13.9136 14.3121C13.7389 14.1433 13.6364 13.9134 13.6277 13.6706L13.6277 8.42032L7.0516 14.9964C6.87578 15.1722 6.63733 15.271 6.38869 15.271C6.14005 15.271 5.90159 15.1722 5.72577 14.9964C5.54996 14.8206 5.45119 14.5821 5.45119 14.3335C5.45119 14.0849 5.54996 13.8464 5.72577 13.6706L12.3019 7.0945L7.0516 7.0945C6.80316 7.09434 6.56494 6.99558 6.38927 6.81991C6.2136 6.64424 6.11484 6.40602 6.11468 6.15758Z" fill="white"/>
</svg>
