<svg width="21" height="21" viewBox="0 0 21 21" fill="none" xmlns="http://www.w3.org/2000/svg">
<path d="M11.1618 14.2071L16.2344 9.05674C16.3186 8.97215 16.3854 8.8715 16.431 8.76062C16.4765 8.64973 16.5 8.5308 16.5 8.41067C16.5 8.29055 16.4765 8.17161 16.431 8.06073C16.3854 7.94984 16.3186 7.8492 16.2344 7.76461C16.0662 7.59513 15.8387 7.5 15.6015 7.5C15.3643 7.5 15.1367 7.59513 14.9685 7.76461L10.4794 12.2689L6.03526 7.76461C5.86704 7.59513 5.63949 7.5 5.4023 7.5C5.16511 7.5 4.93756 7.59513 4.76934 7.76461C4.68451 7.84888 4.61702 7.94938 4.57079 8.06028C4.52455 8.17118 4.50049 8.29028 4.5 8.41067C4.50049 8.53106 4.52455 8.65016 4.57079 8.76106C4.61702 8.87196 4.68451 8.97246 4.76934 9.05674L9.84199 14.2071C9.92607 14.2994 10.0281 14.3731 10.1417 14.4236C10.2552 14.474 10.3779 14.5 10.5019 14.5C10.6259 14.5 10.7485 14.474 10.8621 14.4236C10.9757 14.3731 11.0777 14.2994 11.1618 14.2071Z" fill="#262626"/>
</svg>
