<svg width="40" height="40" viewBox="0 0 40 40" fill="none" xmlns="http://www.w3.org/2000/svg">
<rect width="40" height="40" rx="20" fill="#F28774"/>
<path d="M27 17C27 15.9391 26.5786 14.9217 25.8284 14.1716C25.0783 13.4214 24.0609 13 23 13V11C23 10.7348 22.8946 10.4804 22.7071 10.2929C22.5196 10.1054 22.2652 10 22 10C21.7348 10 21.4804 10.1054 21.2929 10.2929C21.1054 10.4804 21 10.7348 21 11V13H19V11C19 10.7348 18.8946 10.4804 18.7071 10.2929C18.5196 10.1054 18.2652 10 18 10C17.7348 10 17.4804 10.1054 17.2929 10.2929C17.1054 10.4804 17 10.7348 17 11V13H14C13.7348 13 13.4804 13.1054 13.2929 13.2929C13.1054 13.4804 13 13.7348 13 14C13 14.2652 13.1054 14.5196 13.2929 14.7071C13.4804 14.8946 13.7348 15 14 15H15V25H14C13.7348 25 13.4804 25.1054 13.2929 25.2929C13.1054 25.4804 13 25.7348 13 26C13 26.2652 13.1054 26.5196 13.2929 26.7071C13.4804 26.8946 13.7348 27 14 27H17V29C17 29.2652 17.1054 29.5196 17.2929 29.7071C17.4804 29.8946 17.7348 30 18 30C18.2652 30 18.5196 29.8946 18.7071 29.7071C18.8946 29.5196 19 29.2652 19 29V27H21V29C21 29.2652 21.1054 29.5196 21.2929 29.7071C21.4804 29.8946 21.7348 30 22 30C22.2652 30 22.5196 29.8946 22.7071 29.7071C22.8946 29.5196 23 29.2652 23 29V27C23.8103 26.9948 24.5999 26.7436 25.2643 26.2797C25.9287 25.8159 26.4365 25.1611 26.7205 24.4022C27.0046 23.6433 27.0514 22.8161 26.8549 22.03C26.6584 21.2438 26.2277 20.5359 25.62 20C26.0503 19.627 26.396 19.1664 26.634 18.6491C26.872 18.1317 26.9968 17.5695 27 17ZM23 25H17V21H23C23.5304 21 24.0391 21.2107 24.4142 21.5858C24.7893 21.9609 25 22.4696 25 23C25 23.5304 24.7893 24.0391 24.4142 24.4142C24.0391 24.7893 23.5304 25 23 25ZM23 19H17V15H23C23.5304 15 24.0391 15.2107 24.4142 15.5858C24.7893 15.9609 25 16.4696 25 17C25 17.5304 24.7893 18.0391 24.4142 18.4142C24.0391 18.7893 23.5304 19 23 19Z" fill="white"/>
</svg>
