<svg width="40" height="40" viewBox="0 0 40 40" fill="none" xmlns="http://www.w3.org/2000/svg">
<path d="M36.5339 11.0333C36.3648 10.6261 36.0411 10.3025 35.6339 10.1333C35.4335 10.0479 35.2183 10.0026 35.0006 10H26.6672C26.2252 10 25.8013 10.1756 25.4887 10.4882C25.1761 10.8007 25.0006 11.2246 25.0006 11.6667C25.0006 12.1087 25.1761 12.5326 25.4887 12.8452C25.8013 13.1577 26.2252 13.3333 26.6672 13.3333H30.9839L21.6672 22.65L16.1839 17.15C16.0289 16.9938 15.8446 16.8698 15.6415 16.7852C15.4384 16.7006 15.2206 16.657 15.0006 16.657C14.7805 16.657 14.5627 16.7006 14.3596 16.7852C14.1565 16.8698 13.9722 16.9938 13.8172 17.15L3.81722 27.15C3.661 27.3049 3.53701 27.4893 3.4524 27.6924C3.36778 27.8955 3.32422 28.1133 3.32422 28.3333C3.32422 28.5534 3.36778 28.7712 3.4524 28.9743C3.53701 29.1774 3.661 29.3617 3.81722 29.5167C3.97215 29.6729 4.15649 29.7969 4.35959 29.8815C4.56269 29.9661 4.78053 30.0097 5.00055 30.0097C5.22057 30.0097 5.43841 29.9661 5.64151 29.8815C5.84461 29.7969 6.02894 29.6729 6.18388 29.5167L15.0006 20.6833L20.4839 26.1833C20.6388 26.3395 20.8232 26.4635 21.0263 26.5482C21.2294 26.6328 21.4472 26.6763 21.6672 26.6763C21.8872 26.6763 22.1051 26.6328 22.3082 26.5482C22.5113 26.4635 22.6956 26.3395 22.8505 26.1833L33.3339 15.6833V20C33.3339 20.442 33.5095 20.866 33.822 21.1785C34.1346 21.4911 34.5585 21.6667 35.0006 21.6667C35.4426 21.6667 35.8665 21.4911 36.1791 21.1785C36.4916 20.866 36.6672 20.442 36.6672 20V11.6667C36.6646 11.4489 36.6193 11.2337 36.5339 11.0333Z" fill="#F28774"/>
</svg>
