<svg width="40" height="40" viewBox="0 0 40 40" fill="none" xmlns="http://www.w3.org/2000/svg">
<path d="M26.6693 11.6663H10.0026C9.0026 11.6663 8.33594 12.333 8.33594 13.333V17.4997H20.8359C21.8359 17.4997 22.5026 18.1663 22.5026 19.1663V31.6663H26.6693C27.6693 31.6663 28.3359 30.9997 28.3359 29.9997V13.333C28.3359 12.333 27.6693 11.6663 26.6693 11.6663ZM18.3359 19.9997H5.0026C4.0026 19.9997 3.33594 20.6663 3.33594 21.6663V34.9997C3.33594 35.9997 4.0026 36.6663 5.0026 36.6663H18.3359C19.3359 36.6663 20.0026 35.9997 20.0026 34.9997V21.6663C20.0026 20.6663 19.3359 19.9997 18.3359 19.9997ZM35.0026 3.33301H15.0026C14.0026 3.33301 13.3359 3.99967 13.3359 4.99967V9.16634H29.1693C30.1693 9.16634 30.8359 9.83301 30.8359 10.833V26.6663H35.0026C36.0026 26.6663 36.6693 25.9997 36.6693 24.9997V4.99967C36.6693 3.99967 36.0026 3.33301 35.0026 3.33301Z" fill="#F28774"/>
</svg>
