<svg width="40" height="40" viewBox="0 0 40 40" fill="none" xmlns="http://www.w3.org/2000/svg">
<path d="M28.9007 9.09967C28.5051 9.09967 28.1184 9.21697 27.7895 9.43674C27.4606 9.6565 27.2043 9.96886 27.0529 10.3343C26.9015 10.6998 26.8619 11.1019 26.9391 11.4899C27.0163 11.8778 27.2067 12.2342 27.4864 12.5139C27.7661 12.7936 28.1225 12.9841 28.5105 13.0612C28.8984 13.1384 29.3006 13.0988 29.666 12.9474C30.0315 12.7961 30.3438 12.5397 30.5636 12.2108C30.7834 11.8819 30.9007 11.4952 30.9007 11.0997C30.9007 10.5692 30.6899 10.0605 30.3149 9.68546C29.9398 9.31039 29.4311 9.09967 28.9007 9.09967ZM36.5673 13.133C36.5349 11.7502 36.2759 10.382 35.8006 9.08301C35.3769 7.97156 34.7173 6.96514 33.8673 6.13301C33.042 5.27872 32.0332 4.6233 30.9173 4.21634C29.6217 3.72661 28.2521 3.46169 26.8673 3.43301C25.1007 3.33301 24.534 3.33301 20.0007 3.33301C15.4673 3.33301 14.9007 3.33301 13.134 3.43301C11.7492 3.46169 10.3796 3.72661 9.08398 4.21634C7.97011 4.62742 6.96221 5.28228 6.13398 6.13301C5.27969 6.9583 4.62428 7.96707 4.21732 9.08301C3.72759 10.3786 3.46267 11.7483 3.43398 13.133C3.33398 14.8997 3.33398 15.4663 3.33398 19.9997C3.33398 24.533 3.33398 25.0997 3.43398 26.8663C3.46267 28.2511 3.72759 29.6208 4.21732 30.9163C4.62428 32.0323 5.27969 33.041 6.13398 33.8663C6.96221 34.7171 7.97011 35.3719 9.08398 35.783C10.3796 36.2727 11.7492 36.5377 13.134 36.5663C14.9007 36.6663 15.4673 36.6663 20.0007 36.6663C24.534 36.6663 25.1007 36.6663 26.8673 36.5663C28.2521 36.5377 29.6217 36.2727 30.9173 35.783C32.0332 35.376 33.042 34.7206 33.8673 33.8663C34.7211 33.0373 35.3812 32.03 35.8006 30.9163C36.2759 29.6173 36.5349 28.2492 36.5673 26.8663C36.5673 25.0997 36.6673 24.533 36.6673 19.9997C36.6673 15.4663 36.6673 14.8997 36.5673 13.133ZM33.5673 26.6663C33.5552 27.7243 33.3636 28.7725 33.0006 29.7663C32.7345 30.4917 32.3071 31.147 31.7506 31.683C31.2101 32.2339 30.556 32.6604 29.834 32.933C28.8402 33.2959 27.7919 33.4875 26.734 33.4997C25.0673 33.583 24.4507 33.5997 20.0673 33.5997C15.684 33.5997 15.0673 33.5997 13.4007 33.4997C12.3021 33.5202 11.2083 33.3511 10.1673 32.9997C9.47695 32.7131 8.85291 32.2877 8.33398 31.7497C7.7808 31.2143 7.35872 30.5583 7.10065 29.833C6.69374 28.8249 6.46806 27.7529 6.43398 26.6663C6.43398 24.9997 6.33398 24.383 6.33398 19.9997C6.33398 15.6163 6.33398 14.9997 6.43398 13.333C6.44145 12.2514 6.6389 11.1796 7.01732 10.1663C7.31073 9.46286 7.76109 8.83577 8.33398 8.33301C8.84034 7.75995 9.46613 7.30483 10.1673 6.99967C11.1832 6.63308 12.254 6.44147 13.334 6.43301C15.0007 6.43301 15.6173 6.33301 20.0007 6.33301C24.384 6.33301 25.0007 6.33301 26.6673 6.43301C27.7253 6.44514 28.7735 6.63675 29.7673 6.99967C30.5247 7.28076 31.2045 7.73775 31.7506 8.33301C32.2968 8.84497 32.7236 9.4709 33.0006 10.1663C33.3711 11.1812 33.5628 12.2526 33.5673 13.333C33.6507 14.9997 33.6673 15.6163 33.6673 19.9997C33.6673 24.383 33.6507 24.9997 33.5673 26.6663ZM20.0007 11.4497C18.3103 11.453 16.6589 11.9572 15.2551 12.8987C13.8512 13.8402 12.7579 15.1767 12.1134 16.7393C11.4688 18.3019 11.3019 20.0205 11.6336 21.6779C11.9654 23.3353 12.781 24.8572 13.9774 26.0513C15.1738 27.2454 16.6973 28.058 18.3554 28.3866C20.0135 28.7151 21.7318 28.5449 23.2931 27.8972C24.8544 27.2496 26.1888 26.1537 27.1275 24.7481C28.0663 23.3424 28.5673 21.69 28.5673 19.9997C28.5695 18.8748 28.3493 17.7607 27.9194 16.7213C27.4894 15.6819 26.8582 14.7377 26.0621 13.9431C25.266 13.1485 24.3206 12.5191 23.2803 12.0912C22.2401 11.6633 21.1255 11.4453 20.0007 11.4497ZM20.0007 25.5497C18.903 25.5497 17.8299 25.2242 16.9172 24.6143C16.0045 24.0045 15.2932 23.1377 14.8731 22.1236C14.4531 21.1094 14.3431 19.9935 14.5573 18.9169C14.7714 17.8403 15.3 16.8514 16.0762 16.0752C16.8524 15.299 17.8413 14.7705 18.9179 14.5563C19.9945 14.3422 21.1104 14.4521 22.1245 14.8721C23.1387 15.2922 24.0055 16.0036 24.6153 16.9163C25.2251 17.829 25.5506 18.902 25.5506 19.9997C25.5506 20.7285 25.4071 21.4502 25.1282 22.1236C24.8493 22.7969 24.4405 23.4088 23.9251 23.9241C23.4097 24.4395 22.7979 24.8483 22.1245 25.1272C21.4512 25.4061 20.7295 25.5497 20.0007 25.5497Z" fill="#F28774"/>
</svg>
