<svg width="40" height="40" viewBox="0 0 40 40" fill="none" xmlns="http://www.w3.org/2000/svg">
<path d="M28.5497 0.453903C28.3383 0.510439 28.14 0.608104 27.9663 0.741316C27.7926 0.874527 27.6468 1.04067 27.5374 1.23025C27.4279 1.41983 27.3569 1.62912 27.3284 1.84616C27.2999 2.0632 27.3145 2.28373 27.3712 2.49514L27.6459 3.52018C26.7392 5.56745 25.3874 7.38679 23.689 8.84577C21.9905 10.3047 19.9881 11.3667 17.8276 11.9542L8.16829 14.5424C6.8882 14.8869 5.79704 15.7251 5.13422 16.8732C4.4714 18.0212 4.29106 19.3853 4.63276 20.6661L5.49549 23.8859C5.83999 25.166 6.67821 26.2571 7.82625 26.9199C8.97429 27.5828 10.3384 27.7631 11.6192 27.4214L12.3981 27.2127L10.9484 37.2748C10.9088 37.5477 10.9377 37.8263 11.0324 38.0853C11.1271 38.3443 11.2847 38.5758 11.4909 38.7589C11.6972 38.942 11.9457 39.0711 12.2141 39.1344C12.4826 39.1978 12.7625 39.1935 13.0289 39.1219L19.4684 37.3964C19.7836 37.3122 20.0671 37.1372 20.2836 36.8931C20.5001 36.649 20.6401 36.3467 20.6862 36.0237L22.3295 24.6172C24.3497 24.2318 26.4274 24.2646 28.4344 24.7136C30.4414 25.1626 32.335 26.0183 33.9983 27.2278L34.2731 28.2532C34.3875 28.6801 34.6668 29.0442 35.0496 29.2652C35.4324 29.4862 35.8873 29.5461 36.3143 29.4317C36.7413 29.3173 37.1053 29.0379 37.3263 28.6551C37.5473 28.2723 37.6072 27.8174 37.4928 27.3904L30.591 1.63241C30.5344 1.42093 30.4368 1.22267 30.3036 1.04896C30.1704 0.875257 30.0042 0.72951 29.8146 0.620057C29.6251 0.510604 29.4158 0.439592 29.1987 0.411082C28.9817 0.382572 28.7612 0.397123 28.5497 0.453903ZM10.7565 24.2017C10.3295 24.3157 9.87475 24.2557 9.49202 24.0348C9.10929 23.8138 8.82991 23.4499 8.71524 23.0231L7.85251 19.8034C7.73842 19.3764 7.79845 18.9217 8.01942 18.5389C8.24039 18.1562 8.60422 17.8768 9.03102 17.7621L10.6409 17.3308L12.3664 23.7703L10.7565 24.2017ZM17.5445 34.461L14.6077 35.2479L15.9002 26.2743L18.8369 25.4874L17.5445 34.461ZM32.7727 22.6537C28.8977 20.8892 24.5312 20.5216 20.4157 21.6134L15.5861 22.9075L13.8606 16.468L18.6903 15.1739C22.8002 14.0613 26.3979 11.5594 28.8713 8.09367L32.7727 22.6537Z" fill="#F28774"/>
</svg>
