<svg width="40" height="40" viewBox="0 0 40 40" fill="none" xmlns="http://www.w3.org/2000/svg">
<path d="M31.6667 11.6667H30V10C30 8.67392 29.4732 7.40215 28.5355 6.46447C27.5979 5.52678 26.3261 5 25 5H8.33334C7.00725 5 5.73548 5.52678 4.7978 6.46447C3.86012 7.40215 3.33334 8.67392 3.33334 10V30C3.33334 31.3261 3.86012 32.5979 4.7978 33.5355C5.73548 34.4732 7.00725 35 8.33334 35H31.6667C32.9928 35 34.2645 34.4732 35.2022 33.5355C36.1399 32.5979 36.6667 31.3261 36.6667 30V16.6667C36.6667 15.3406 36.1399 14.0688 35.2022 13.1311C34.2645 12.1935 32.9928 11.6667 31.6667 11.6667ZM8.33334 8.33333H25C25.442 8.33333 25.866 8.50893 26.1785 8.82149C26.4911 9.13405 26.6667 9.55797 26.6667 10V11.6667H8.33334C7.89131 11.6667 7.46739 11.4911 7.15482 11.1785C6.84226 10.866 6.66667 10.442 6.66667 10C6.66667 9.55797 6.84226 9.13405 7.15482 8.82149C7.46739 8.50893 7.89131 8.33333 8.33334 8.33333ZM33.3333 25H31.6667C31.2246 25 30.8007 24.8244 30.4882 24.5118C30.1756 24.1993 30 23.7754 30 23.3333C30 22.8913 30.1756 22.4674 30.4882 22.1548C30.8007 21.8423 31.2246 21.6667 31.6667 21.6667H33.3333V25ZM33.3333 18.3333H31.6667C30.3406 18.3333 29.0688 18.8601 28.1311 19.7978C27.1935 20.7355 26.6667 22.0072 26.6667 23.3333C26.6667 24.6594 27.1935 25.9312 28.1311 26.8689C29.0688 27.8065 30.3406 28.3333 31.6667 28.3333H33.3333V30C33.3333 30.442 33.1577 30.866 32.8452 31.1785C32.5326 31.4911 32.1087 31.6667 31.6667 31.6667H8.33334C7.89131 31.6667 7.46739 31.4911 7.15482 31.1785C6.84226 30.866 6.66667 30.442 6.66667 30V14.7167C7.20212 14.905 7.76573 15.0008 8.33334 15H31.6667C32.1087 15 32.5326 15.1756 32.8452 15.4882C33.1577 15.8007 33.3333 16.2246 33.3333 16.6667V18.3333Z" fill="#F28774"/>
</svg>
