<svg width="40" height="40" viewBox="0 0 40 40" fill="none" xmlns="http://www.w3.org/2000/svg">
<path d="M11.6537 24.1703C11.4348 24.1702 11.218 24.2133 11.0158 24.297C10.8135 24.3808 10.6298 24.5035 10.475 24.6583C10.3202 24.8131 10.1975 24.9968 10.1137 25.1991C10.03 25.4013 9.98693 25.618 9.98699 25.8369V28.8074C7.83873 26.3779 6.65316 23.2467 6.65366 20.0036C6.65335 19.5135 6.68269 19.0237 6.74154 18.5371C6.76852 18.3195 6.7523 18.0987 6.6938 17.8874C6.6353 17.6761 6.53567 17.4784 6.40063 17.3057C6.26559 17.1329 6.09778 16.9885 5.90684 16.8807C5.71589 16.773 5.50554 16.7039 5.28786 16.6776C5.07019 16.6512 4.84945 16.6681 4.6383 16.7272C4.42716 16.7864 4.22976 16.8866 4.05741 17.0221C3.88506 17.1577 3.74116 17.3259 3.63395 17.5172C3.52673 17.7085 3.45832 17.919 3.43262 18.1368C3.35713 18.7562 3.31962 19.3796 3.32032 20.0036C3.32259 23.9805 4.75192 27.8246 7.34844 30.8369H4.98699C4.54496 30.8369 4.12104 31.0125 3.80848 31.3251C3.49592 31.6376 3.32032 32.0616 3.32032 32.5036C3.32032 32.9456 3.49592 33.3696 3.80848 33.6821C4.12104 33.9947 4.54496 34.1703 4.98699 34.1703H11.6537C11.9143 34.167 12.1704 34.1015 12.4007 33.9792C12.6309 33.8569 12.8285 33.6814 12.9772 33.4673C12.9966 33.4416 13.0215 33.4226 13.0396 33.3956C13.0507 33.379 13.051 33.3594 13.0613 33.3425C13.1408 33.2083 13.2003 33.0633 13.238 32.912C13.2627 32.827 13.2802 32.7401 13.2904 32.6522C13.2952 32.6007 13.3204 32.5564 13.3204 32.5037V25.837C13.3204 25.6181 13.2774 25.4013 13.1936 25.1991C13.1099 24.9968 12.9871 24.8131 12.8323 24.6583C12.6776 24.5035 12.4938 24.3807 12.2916 24.297C12.0893 24.2133 11.8725 24.1702 11.6537 24.1703ZM14.1537 10.0036H11.1829C13.6125 7.85545 16.7439 6.6699 19.987 6.67027C20.4769 6.66909 20.9664 6.69845 21.4526 6.75817C21.67 6.78457 21.8905 6.76789 22.1014 6.70909C22.3123 6.65029 22.5096 6.55053 22.682 6.41548C22.8543 6.28044 22.9984 6.11277 23.106 5.92205C23.2136 5.73132 23.2825 5.52128 23.3089 5.3039C23.3353 5.08653 23.3186 4.86608 23.2598 4.65516C23.201 4.44423 23.1013 4.24694 22.9662 4.07457C22.8312 3.9022 22.6635 3.75811 22.4728 3.65054C22.2821 3.54297 22.072 3.47402 21.8547 3.44762C21.2349 3.37285 20.6112 3.33589 19.987 3.33694C16.0101 3.3391 12.166 4.76832 9.15366 7.36475V5.0036C9.15366 4.56157 8.97806 4.13765 8.6655 3.82509C8.35294 3.51253 7.92902 3.33694 7.48699 3.33694C7.04496 3.33694 6.62104 3.51253 6.30848 3.82509C5.99592 4.13765 5.82032 4.56157 5.82032 5.0036V11.6703C5.8308 11.7804 5.85276 11.8892 5.88584 11.9948L5.88624 11.9968C5.92671 12.2019 6.00662 12.3972 6.12152 12.5718L6.14056 12.6C6.25068 12.7602 6.38871 12.8992 6.54806 13.0106C6.56627 13.0239 6.57532 13.0443 6.59424 13.057C6.61806 13.0728 6.64501 13.0778 6.66932 13.0922C6.76384 13.1491 6.864 13.196 6.96819 13.2322C7.109 13.2812 7.2558 13.3109 7.40459 13.3203C7.43347 13.3219 7.45779 13.337 7.48699 13.337H14.1537C14.5957 13.337 15.0196 13.1614 15.3322 12.8488C15.6447 12.5363 15.8203 12.1123 15.8203 11.6703C15.8203 11.2283 15.6447 10.8044 15.3322 10.4918C15.0196 10.1792 14.5957 10.0037 14.1537 10.0037V10.0036ZM34.0877 28.0104C34.0473 27.8053 33.9674 27.6099 33.8523 27.4353L33.8335 27.4073C33.7233 27.247 33.5852 27.1079 33.4257 26.9965C33.4075 26.9833 33.3986 26.9628 33.3797 26.9501C33.3617 26.9382 33.3404 26.9378 33.3221 26.9266C33.1107 26.8091 32.879 26.7325 32.6392 26.7009C32.5865 26.6959 32.541 26.6702 32.487 26.6702H25.8203C25.3783 26.6702 24.9544 26.8458 24.6418 27.1583C24.3293 27.4709 24.1537 27.8948 24.1537 28.3368C24.1537 28.7789 24.3293 29.2028 24.6418 29.5154C24.9544 29.8279 25.3783 30.0035 25.8203 30.0035H28.791C26.3614 32.1517 23.2301 33.3372 19.987 33.3368C19.497 33.3375 19.0075 33.3076 18.5213 33.2473C18.0823 33.194 17.6401 33.3173 17.292 33.59C16.9439 33.8627 16.7183 34.2626 16.665 34.7016C16.6117 35.1406 16.735 35.5828 17.0077 35.9309C17.2805 36.279 17.6803 36.5046 18.1193 36.5579C18.7391 36.6326 19.3627 36.6701 19.987 36.6702C23.9639 36.668 27.808 35.2388 30.8203 32.6424V35.0036C30.8203 35.4456 30.9959 35.8696 31.3085 36.1821C31.621 36.4947 32.045 36.6703 32.487 36.6703C32.929 36.6703 33.3529 36.4947 33.6655 36.1821C33.9781 35.8696 34.1537 35.4456 34.1537 35.0036V28.3369C34.1432 28.2268 34.1212 28.118 34.0881 28.0124L34.0877 28.0104ZM34.987 9.17027C35.429 9.17027 35.8529 8.99467 36.1655 8.68211C36.4781 8.36955 36.6537 7.94563 36.6537 7.5036C36.6537 7.06157 36.4781 6.63765 36.1655 6.32509C35.8529 6.01253 35.429 5.83694 34.987 5.83694H28.3203C28.2118 5.84739 28.1047 5.86901 28.0006 5.90144L27.9895 5.90367C27.7871 5.94416 27.5943 6.0231 27.4217 6.13622L27.389 6.15829C27.2296 6.26825 27.0911 6.40585 26.9802 6.56459C26.9671 6.58259 26.9469 6.59144 26.9344 6.61005C26.9225 6.62795 26.9221 6.64912 26.9109 6.66732C26.792 6.87997 26.7148 7.11343 26.6837 7.35509C26.6789 7.40657 26.6537 7.45092 26.6537 7.5036V14.1703C26.6537 14.6123 26.8293 15.0362 27.1418 15.3488C27.4544 15.6613 27.8783 15.8369 28.3203 15.8369C28.7623 15.8369 29.1863 15.6613 29.4988 15.3488C29.8114 15.0362 29.987 14.6123 29.987 14.1703V11.1988C32.1351 13.6288 33.3206 16.7602 33.3203 20.0035C33.3206 20.4937 33.2913 20.9834 33.2324 21.47C33.1796 21.9087 33.303 22.3504 33.5755 22.6983C33.848 23.0462 34.2473 23.2717 34.6859 23.3255C34.7534 23.3333 34.8214 23.3371 34.8893 23.3369C35.2963 23.3363 35.689 23.1869 35.9933 22.9167C36.2976 22.6466 36.4926 22.2744 36.5414 21.8704C36.6168 21.251 36.6544 20.6276 36.6537 20.0036C36.6514 16.0266 35.222 12.1825 32.6253 9.17027H34.987Z" fill="#F28774"/>
</svg>
