<svg width="40" height="40" viewBox="0 0 40 40" fill="none" xmlns="http://www.w3.org/2000/svg">
<path d="M36.1826 25.9667L28.6493 18.45C28.8069 17.6823 28.8851 16.9004 28.8826 16.1167C28.882 13.9678 28.3397 11.8537 27.3058 9.96982C26.272 8.08596 24.7799 6.49314 22.9674 5.33858C21.155 4.18402 19.0808 3.50499 16.9365 3.36424C14.7922 3.2235 12.647 3.62559 10.6993 4.53334C10.4525 4.64607 10.237 4.81734 10.0714 5.03227C9.90586 5.2472 9.79528 5.4993 9.74927 5.76668C9.70344 6.03065 9.72193 6.30179 9.80316 6.5571C9.8844 6.81242 10.026 7.04438 10.2159 7.23334L17.4659 14.4667L14.4659 17.4667L7.2326 10.2167C7.04205 10.0297 6.80936 9.8912 6.55413 9.81289C6.29889 9.73458 6.02858 9.71873 5.76594 9.76668C5.50024 9.811 5.24925 9.91906 5.03445 10.0816C4.81965 10.2442 4.64745 10.4564 4.5326 10.7C3.62181 12.6542 3.22007 14.807 3.36476 16.9581C3.50944 19.1093 4.19585 21.1889 5.36012 23.0035C6.5244 24.8181 8.12872 26.3087 10.0238 27.3368C11.919 28.3648 14.0433 28.8968 16.1993 28.8833C16.983 28.8859 17.7649 28.8077 18.5326 28.65L26.0493 36.1833C26.2042 36.3396 26.3885 36.4635 26.5916 36.5482C26.7947 36.6328 27.0126 36.6763 27.2326 36.6763C27.4526 36.6763 27.6705 36.6328 27.8736 36.5482C28.0767 36.4635 28.261 36.3396 28.4159 36.1833C28.5721 36.0284 28.6961 35.8441 28.7808 35.641C28.8654 35.4379 28.9089 35.22 28.9089 35C28.9089 34.78 28.8654 34.5621 28.7808 34.359C28.6961 34.1559 28.5721 33.9716 28.4159 33.8167L20.2493 25.65C20.0452 25.4473 19.7921 25.3008 19.5147 25.2249C19.2372 25.149 18.9448 25.1461 18.6659 25.2167C17.8612 25.4322 17.0323 25.5442 16.1993 25.55C14.9527 25.561 13.7162 25.3252 12.5612 24.8563C11.4061 24.3874 10.3552 23.6945 9.46909 22.8177C8.58295 21.9408 7.87906 20.8973 7.39797 19.7473C6.91687 18.5972 6.66809 17.3633 6.66594 16.1167C6.66378 15.5584 6.70838 15.0009 6.79927 14.45L13.3326 21C13.4875 21.1562 13.6719 21.2802 13.875 21.3648C14.0781 21.4494 14.2959 21.493 14.5159 21.493C14.736 21.493 14.9538 21.4494 15.1569 21.3648C15.36 21.2802 15.5443 21.1562 15.6993 21L20.9993 15.65C21.2997 15.3392 21.4676 14.9239 21.4676 14.4917C21.4676 14.0594 21.2997 13.6441 20.9993 13.3333L14.5159 6.80001C15.0669 6.71003 15.6243 6.66543 16.1826 6.66668C18.686 6.67109 21.0854 7.66866 22.854 9.4404C24.6226 11.2121 25.6159 13.6133 25.6159 16.1167C25.6101 16.9497 25.4981 17.7786 25.2826 18.5833C25.2121 18.8622 25.2149 19.1546 25.2908 19.4321C25.3668 19.7095 25.5132 19.9626 25.7159 20.1667L33.8826 28.3333C34.1964 28.6472 34.6221 28.8235 35.0659 28.8235C35.5098 28.8235 35.9354 28.6472 36.2493 28.3333C36.5631 28.0195 36.7394 27.5938 36.7394 27.15C36.7394 26.7062 36.5631 26.2805 36.2493 25.9667H36.1826Z" fill="#F28774"/>
</svg>
