<svg width="40" height="40" viewBox="0 0 40 40" fill="none" xmlns="http://www.w3.org/2000/svg">
<path d="M35.116 28.0497L31.666 24.5163C30.9239 23.8109 29.9878 23.3435 28.978 23.1742C27.9682 23.0049 26.9309 23.1415 25.9993 23.5663L24.4993 22.0663C26.2669 19.7045 27.0742 16.7608 26.7586 13.8277C26.443 10.8946 25.028 8.19003 22.7984 6.25832C20.5688 4.32662 17.6902 3.31125 14.7421 3.41663C11.794 3.52201 8.99525 4.74031 6.90928 6.82627C4.82332 8.91224 3.60502 11.711 3.49964 14.6591C3.39426 17.6072 4.40962 20.4858 6.34133 22.7154C8.27304 24.945 10.9777 26.36 13.9107 26.6756C16.8438 26.9912 19.7875 26.1839 22.1493 24.4163L23.6327 25.8997C23.1578 26.8324 22.9876 27.8906 23.1461 28.9252C23.3046 29.9598 23.7837 30.9185 24.516 31.6663L28.0493 35.1997C28.9868 36.136 30.2577 36.6619 31.5827 36.6619C32.9077 36.6619 34.1785 36.136 35.116 35.1997C35.5922 34.734 35.9706 34.1779 36.229 33.564C36.4873 32.9501 36.6204 32.2907 36.6204 31.6247C36.6204 30.9586 36.4873 30.2993 36.229 29.6853C35.9706 29.0714 35.5922 28.5153 35.116 28.0497ZM20.9827 20.983C19.8164 22.1463 18.3315 22.9379 16.7156 23.2577C15.0996 23.5776 13.4252 23.4113 11.9037 22.78C10.3822 22.1486 9.08193 21.0805 8.16719 19.7106C7.25244 18.3406 6.76423 16.7303 6.76423 15.083C6.76423 13.4357 7.25244 11.8254 8.16719 10.4554C9.08193 9.08548 10.3822 8.01736 11.9037 7.38601C13.4252 6.75466 15.0996 6.58841 16.7156 6.90824C18.3315 7.22808 19.8164 8.01966 20.9827 9.18299C21.7587 9.95709 22.3744 10.8767 22.7945 11.8891C23.2146 12.9015 23.4309 13.9869 23.4309 15.083C23.4309 16.1791 23.2146 17.2645 22.7945 18.2769C22.3744 19.2893 21.7587 20.2089 20.9827 20.983ZM32.766 32.7663C32.6111 32.9225 32.4267 33.0465 32.2236 33.1311C32.0205 33.2158 31.8027 33.2593 31.5827 33.2593C31.3626 33.2593 31.1448 33.2158 30.9417 33.1311C30.7386 33.0465 30.5543 32.9225 30.3993 32.7663L26.866 29.233C26.7098 29.0781 26.5858 28.8937 26.5012 28.6906C26.4166 28.4875 26.373 28.2697 26.373 28.0497C26.373 27.8296 26.4166 27.6118 26.5012 27.4087C26.5858 27.2056 26.7098 27.0213 26.866 26.8663C27.0209 26.7101 27.2053 26.5861 27.4084 26.5015C27.6115 26.4169 27.8293 26.3733 28.0493 26.3733C28.2694 26.3733 28.4872 26.4169 28.6903 26.5015C28.8934 26.5861 29.0777 26.7101 29.2327 26.8663L32.766 30.3997C32.9222 30.5546 33.0462 30.7389 33.1308 30.942C33.2154 31.1451 33.259 31.363 33.259 31.583C33.259 31.803 33.2154 32.0209 33.1308 32.224C33.0462 32.427 32.9222 32.6114 32.766 32.7663Z" fill="#F28774"/>
</svg>
