<svg width="40" height="40" viewBox="0 0 40 40" fill="none" xmlns="http://www.w3.org/2000/svg">
<path d="M37.6667 3.50005C37.5 3.00005 37 2.50005 36.5 2.33338C29.5 0.500047 22.3333 2.66671 17.5 8.33338L15.6667 10.5L11.1667 9.50005C9 8.66671 6.66667 9.66671 5.66667 11.6667L2 18.1667C1.66667 18.6667 1.66667 19.1667 2 19.6667C2.16667 20.1667 2.66667 20.5 3.16667 20.6667L8.33333 21.8334C7.83333 23.1667 7.66667 24.5 7.33333 25.8334C7.33333 26.3334 7.5 26.8334 7.83333 27.1667L13 32.3334C13.3333 32.6667 13.6667 32.8334 14.1667 32.8334H14.3333C15.8333 32.6667 17.1667 32.5 18.5 32L19.5 37C19.6667 37.5 20 38 20.5 38.1667C20.6667 38.3334 21 38.3334 21.1667 38.3334C21.5 38.3334 21.6667 38.3334 22 38.1667L28.5 34.5C30.3333 33.5 31.3333 31.1667 30.8333 29L29.6667 24.3334L31.6667 22.5C37.1667 17.8334 39.5 10.3334 37.6667 3.50005ZM12.1667 14.6667C11.1667 16 10.1667 17.3334 9.5 18.6667L6 17.8334L8.5 13.3334C8.83333 12.6667 9.5 12.5 10.3333 12.6667L13.1667 13.3334L12.1667 14.6667ZM26.6667 31.5L22.1667 34L21.5 30.6667C23 30 24.3333 29 25.5 28L26.6667 26.8334L27.3333 29.6667C27.6667 30.5 27.1667 31.3334 26.6667 31.5ZM27.8333 14.6667C26.5 14.6667 25.3333 13.5 25.3333 12.1667C25.3333 10.8334 26.5 9.66671 27.8333 9.66671C29.1667 9.66671 30.3333 10.8334 30.3333 12.1667C30.3333 13.5 29.3333 14.6667 27.8333 14.6667Z" fill="#F28774"/>
</svg>
