<svg width="18" height="18" viewBox="0 0 18 18" fill="none" xmlns="http://www.w3.org/2000/svg">
<path d="M17.3327 5.03343C17.3333 4.92376 17.3123 4.81504 17.2708 4.71351C17.2294 4.61198 17.1683 4.51963 17.091 4.44176L13.5577 0.908429C13.4798 0.831194 13.3875 0.77009 13.286 0.728619C13.1844 0.687149 13.0757 0.666128 12.966 0.666762C12.8564 0.666128 12.7476 0.687149 12.6461 0.728619C12.5446 0.77009 12.4522 0.831194 12.3744 0.908429L10.016 3.26676L0.907696 12.3751C0.830462 12.453 0.769357 12.5453 0.727887 12.6468C0.686416 12.7484 0.665395 12.8571 0.66603 12.9668V16.5001C0.66603 16.7211 0.753827 16.9331 0.910107 17.0894C1.06639 17.2456 1.27835 17.3334 1.49936 17.3334H5.0327C5.1493 17.3398 5.26594 17.3215 5.37505 17.2799C5.48415 17.2383 5.58329 17.1742 5.66603 17.0918L14.7244 7.98343L17.091 5.66676C17.1671 5.586 17.2291 5.49304 17.2744 5.39176C17.2824 5.32534 17.2824 5.25819 17.2744 5.19176C17.2783 5.15297 17.2783 5.11389 17.2744 5.0751L17.3327 5.03343ZM4.69103 15.6668H2.3327V13.3084L10.6077 5.03343L12.966 7.39176L4.69103 15.6668ZM14.141 6.21676L11.7827 3.85843L12.966 2.68343L15.316 5.03343L14.141 6.21676Z" fill="currentColor"/>
</svg>
