<svg width="21" height="21" viewBox="0 0 21 21" fill="none" xmlns="http://www.w3.org/2000/svg">
<path d="M10.5 20.5C16.0228 20.5 20.5 16.0228 20.5 10.5C20.5 4.97715 16.0228 0.5 10.5 0.5C4.97715 0.5 0.5 4.97715 0.5 10.5C0.5 16.0228 4.97715 20.5 10.5 20.5Z" fill="#F0F0F0"/>
<path d="M19.878 13.9782C20.28 12.8949 20.5 11.7232 20.5 10.5C20.5 9.27675 20.28 8.10505 19.878 7.02173H1.12199C0.720039 8.10505 0.5 9.27675 0.5 10.5C0.5 11.7232 0.720039 12.8949 1.12199 13.9782L10.5 14.8477L19.878 13.9782Z" fill="#0052B4"/>
<path d="M10.4999 20.5C14.7996 20.5 18.465 17.7863 19.8779 13.9783H1.12193C2.53485 17.7863 6.20029 20.5 10.4999 20.5Z" fill="#D80027"/>
</svg>
