<svg width="621" height="497" viewBox="0 0 621 497" fill="none" xmlns="http://www.w3.org/2000/svg">
<g clip-path="url(#clip0_1_1805)">
<path d="M679.366 316.44C674.105 295.744 653.107 283.156 632.352 288.305C617.121 292.084 606.238 304.369 603.511 318.845C602.352 319.022 601.203 319.253 600.066 319.535C579.653 324.599 567.211 345.251 572.275 365.663C577.34 386.075 597.992 398.517 618.404 393.453C625.234 391.759 631.172 388.319 635.86 383.727C645.825 397.774 663.712 405.032 681.438 400.634C704.558 394.899 718.651 371.507 712.915 348.387C708.751 331.603 695.281 319.576 679.366 316.44Z" fill="white" stroke="#F5F5F5" stroke-width="3" stroke-linejoin="round"/>
<path d="M632.348 288.306L604.065 295.323C588.833 299.102 577.951 311.388 575.223 325.863L603.508 318.845C606.235 304.37 617.117 292.085 632.348 288.306Z" fill="#F5F5F5" stroke="#F5F5F5" stroke-width="0.833333" stroke-linejoin="round"/>
<path d="M610.618 394.557C610.618 394.557 626.561 413.574 653.153 407.653C657.974 406.462 662.553 404.447 666.688 401.695C654.195 400.516 643.094 393.925 635.859 383.727C631.171 388.319 625.129 391.992 618.403 393.453C611.677 394.915 610.618 394.557 610.618 394.557Z" fill="#F5F5F5" stroke="#F5F5F5" stroke-width="0.833333" stroke-linejoin="round"/>
<path d="M571.784 326.553C572.932 326.268 574.081 326.039 575.229 325.863L596.699 320.536C598.915 319.767 601.195 319.201 603.513 318.845L596.699 320.536C578.312 326.924 567.5 346.401 572.279 365.664C576.184 381.404 589.218 391.994 603.569 394.16C599.546 397.129 594.976 399.273 590.122 400.471C569.71 405.535 549.058 393.093 543.994 372.682C538.93 352.27 551.372 331.617 571.784 326.553Z" fill="#F5F5F5"/>
<path d="M596.699 320.536L575.229 325.863C574.081 326.039 572.932 326.268 571.784 326.553C551.372 331.617 538.93 352.27 543.994 372.682C549.058 393.093 569.71 405.535 590.122 400.471C594.976 399.273 599.546 397.129 603.569 394.16C589.218 391.994 576.184 381.404 572.279 365.664C567.5 346.401 578.312 326.924 596.699 320.536ZM596.699 320.536C598.915 319.767 601.195 319.201 603.513 318.845L596.699 320.536Z" stroke="#F5F5F5" stroke-width="0.833333" stroke-linejoin="round"/>
</g>
<path d="M79.7728 530.129L79.7665 530.106L81.8837 531.354C91.8204 537.212 100.85 538.086 108.537 535.6C116.251 533.106 122.761 527.182 127.529 519.176L127.529 519.175C128.219 518.017 128.411 517.296 128.402 516.876C128.396 516.563 128.285 516.372 127.973 516.182C127.592 515.95 126.973 515.772 126.081 515.643C125.25 515.524 124.296 515.462 123.251 515.393C123.196 515.39 123.14 515.386 123.085 515.383C120.941 515.242 118.393 515.069 116.43 514.182C115.421 513.725 114.509 513.057 113.883 512.062C113.254 511.064 112.97 509.828 113.058 508.342L113.058 508.341C113.118 507.347 113.393 506.528 113.947 505.932C114.504 505.334 115.217 505.095 115.875 505.007C116.518 504.921 117.197 504.97 117.776 505.023C117.907 505.035 118.031 505.047 118.151 505.058C118.607 505.102 118.995 505.14 119.355 505.138C127.713 505.081 136.553 502.466 142.723 497.918C148.862 493.391 152.257 487.056 150.175 479.392C148.946 474.863 146.163 472.017 142.599 470.183C138.997 468.329 134.599 467.513 130.216 467.122C128.032 466.927 125.873 466.839 123.84 466.774C123.376 466.76 122.917 466.746 122.465 466.733C120.951 466.689 119.519 466.647 118.243 466.57C116.599 466.469 115.12 466.306 113.99 465.966C112.911 465.641 111.785 465.04 111.499 463.804L111.499 463.804C111.255 462.746 111.408 461.811 111.911 461.016C112.388 460.262 113.124 459.723 113.882 459.305C114.644 458.884 115.525 458.533 116.374 458.206C116.489 458.161 116.603 458.118 116.716 458.074C117.466 457.786 118.192 457.507 118.873 457.189C120.472 456.441 121.482 455.624 121.762 454.446C122.052 453.226 121.66 451.222 119.326 447.854C114.091 440.302 107.409 435.436 100.233 434.533C93.0979 433.636 85.2045 436.624 77.4354 445.35L77.4352 445.35C76.2193 446.715 74.9779 447.577 73.7875 447.947C72.5795 448.322 71.4073 448.187 70.4962 447.524C68.6813 446.206 68.5386 443.415 69.8912 440.779L69.8914 440.778C70.2559 440.069 70.296 439.529 70.1921 439.106C70.085 438.669 69.7909 438.218 69.2363 437.76C68.0956 436.82 66.1051 436.061 63.622 435.515C58.6997 434.433 52.4412 434.308 49.0121 434.711L49.012 434.711C41.822 435.555 36.6506 437.937 33.18 441.166C29.7149 444.389 27.8796 448.515 27.4559 452.979C26.6049 461.948 31.4671 472.307 40.3673 479.073L40.3685 479.074C40.4871 479.165 40.6204 479.263 40.7637 479.368C41.4261 479.855 42.3 480.498 42.9036 481.258C43.2915 481.745 43.6211 482.338 43.7351 483.044C43.8511 483.761 43.7299 484.51 43.3548 485.275C42.5912 486.833 41.3437 487.482 40.0198 487.679C38.9575 487.837 37.7853 487.708 36.7985 487.6C36.6488 487.583 36.5035 487.568 36.3634 487.553C36.3631 487.553 36.3629 487.553 36.3626 487.553L36.4649 486.558C33.791 486.285 31.3897 484.673 29.4254 483.354C26.7843 481.58 24.9329 480.337 24.27 483.592L79.7728 530.129ZM79.7728 530.129C79.4867 529.958 79.2096 529.788 78.9431 529.619C78.0541 529.055 77.3846 528.554 76.9743 528.094C76.5673 527.638 76.5565 527.39 76.5908 527.246C76.6424 527.032 76.8992 526.587 77.8894 525.958L77.8907 525.957C79.864 524.7 80.8452 522.475 80.1349 520.671C79.7667 519.736 78.974 519.045 77.8728 518.783C76.8058 518.529 75.5039 518.686 74.0174 519.265L79.7728 530.129Z" fill="#FFDBD5" stroke="#F28774" stroke-width="2"/>
<path d="M401.42 311.006C366.258 353.527 348.865 375.483 340.01 386.661L339.987 386.69L339.933 386.758C335.549 392.292 333.24 395.207 331.904 396.652C331.262 397.346 330.716 397.852 330.172 398.071C329.849 398.201 329.519 398.237 329.187 398.168C328.894 398.107 328.658 397.972 328.519 397.891C322.4 394.304 314.354 394.238 307.08 397.169C299.819 400.095 293.448 405.964 290.666 414.071L290.666 414.071C289.887 416.339 287.718 417.751 285.372 417.705C280.569 417.613 275.057 419.589 270.742 423.262C266.443 426.92 263.383 432.214 263.358 438.745C263.355 439.524 263.211 440.407 262.557 440.984C261.869 441.592 260.958 441.574 260.148 441.381L260.148 441.381C258.787 441.057 256.69 441.153 254.275 441.815C251.882 442.472 249.265 443.663 246.885 445.428C242.151 448.942 238.362 454.714 239.09 463.176C239.134 463.687 239.192 464.08 239.261 464.383C251.787 461.396 261.107 459.188 268.041 457.545C274.58 455.996 278.997 454.949 281.979 454.227C284.996 453.496 286.503 453.107 287.25 452.87C286.794 449.779 287.797 445.968 289.595 442.361C291.538 438.463 294.499 434.62 297.932 431.898L297.932 431.898C300.066 430.207 302.902 428.858 305.312 428.353C306.506 428.103 307.709 428.036 308.7 428.334C309.208 428.488 309.692 428.747 310.075 429.158C310.463 429.574 310.699 430.096 310.782 430.686M401.42 311.006L309.792 430.826M401.42 311.006C401.454 311.008 401.493 311.012 401.536 311.017C401.788 311.047 402.119 311.115 402.531 311.227C403.352 311.45 404.407 311.825 405.618 312.324C408.037 313.319 410.998 314.771 413.812 316.372C416.633 317.978 419.26 319.707 421.035 321.247C421.929 322.023 422.551 322.704 422.887 323.255C423.237 323.829 423.135 324.008 423.131 324.014C423.131 324.014 423.131 324.014 423.131 324.014C420.624 328.55 409.51 349.797 407.213 354.189C394.929 377.672 387.35 391.536 382.823 399.816C381.732 401.813 380.818 403.485 380.058 404.889C378.13 408.451 377.134 410.394 376.799 411.531C376.63 412.108 376.546 412.739 376.859 413.314C377.116 413.785 377.576 414.049 377.809 414.182C377.829 414.194 377.846 414.204 377.862 414.213C382.395 416.867 383.686 420.566 383.717 423.803C383.734 425.445 383.423 426.976 383.023 428.189C382.693 429.186 382.326 429.9 382.076 430.275L401.42 311.006ZM310.782 430.686L309.792 430.826M310.782 430.686C310.782 430.686 310.782 430.686 310.782 430.686L309.792 430.826M310.782 430.686C310.855 431.204 310.846 431.738 310.614 432.225C310.371 432.737 309.96 433.036 309.561 433.226C309.186 433.405 308.743 433.522 308.331 433.626C308.238 433.649 308.143 433.673 308.048 433.696C307.692 433.785 307.316 433.878 306.895 434.002C304.847 434.607 301.723 435.961 297.861 440.721L297.084 440.091C301.868 434.195 305.654 433.258 307.817 432.723C309.264 432.366 309.984 432.187 309.792 430.826M292.756 451.444C292.754 451.42 292.747 451.387 292.734 451.349C292.675 451.18 292.552 451.089 292.496 451.062C292.493 451.061 292.492 451.06 292.492 451.06C292.492 451.06 292.564 451.086 292.766 451.098C292.787 451.099 292.809 451.1 292.831 451.101C292.808 451.216 292.785 451.33 292.764 451.446M292.756 451.444L291.781 451.263L292.756 451.444M292.756 451.444C292.756 451.444 292.756 451.444 292.756 451.444M292.756 451.444L292.764 451.445C292.764 451.445 292.764 451.446 292.764 451.446M292.756 451.444C292.759 451.462 292.759 451.474 292.759 451.481C292.759 451.475 292.761 451.463 292.764 451.446M292.756 451.444L292.764 451.446M288.345 453.301L287.369 453.516C287.375 453.547 287.372 453.541 287.367 453.511C287.368 453.514 287.369 453.516 287.369 453.519L288.345 453.301ZM288.345 453.301C287.065 447.568 291.943 437.922 298.553 432.682L238.094 463.262C238.184 464.308 238.341 465.055 238.638 465.559C285.819 454.307 288.334 453.904 288.357 453.39C288.358 453.361 288.352 453.332 288.345 453.301ZM376.862 393.507L376.868 393.497C376.999 393.267 377.107 392.911 377.19 392.609C377.287 392.259 377.393 391.817 377.501 391.32C377.716 390.325 377.946 389.074 378.121 387.828C378.296 386.589 378.423 385.319 378.423 384.3C378.424 383.795 378.393 383.303 378.303 382.89C378.258 382.683 378.19 382.457 378.078 382.247C377.968 382.04 377.781 381.782 377.468 381.616L377.467 381.616C377.172 381.46 376.871 381.444 376.659 381.458C376.438 381.472 376.222 381.524 376.029 381.584C375.643 381.706 375.215 381.908 374.786 382.141C373.92 382.612 372.9 383.293 371.926 383.999C370.946 384.709 369.987 385.464 369.237 386.096C368.862 386.412 368.533 386.702 368.276 386.945C368.053 387.156 367.795 387.413 367.653 387.639L367.653 387.639C359.5 400.646 354.262 409.245 351.049 414.837C349.444 417.632 348.335 419.691 347.62 421.184C347.262 421.929 346.995 422.548 346.813 423.056C346.637 423.547 346.514 424.002 346.497 424.395C346.48 424.762 346.553 425.421 347.183 425.765C347.694 426.043 348.231 425.897 348.477 425.817C349.051 425.631 349.77 425.188 350.394 424.801C350.457 424.763 350.519 424.724 350.581 424.685C351.2 424.301 351.804 423.926 352.362 423.653C352.666 423.504 352.921 423.402 353.127 423.348C353.228 423.322 353.304 423.31 353.358 423.307C353.409 423.303 353.43 423.308 353.431 423.308L353.591 423.345L353.755 423.33C354.031 423.304 354.268 423.196 354.433 423.105C354.61 423.007 354.786 422.883 354.954 422.75C355.291 422.484 355.67 422.123 356.076 421.7C356.893 420.851 357.896 419.671 359.008 418.285C361.235 415.509 363.955 411.84 366.587 408.19C371.835 400.91 376.81 393.594 376.862 393.507ZM399.927 335.659C399.926 335.66 399.923 335.662 399.918 335.664C399.925 335.66 399.928 335.659 399.927 335.659ZM360.198 389.17L360.286 389.173L360.373 389.16C360.862 389.091 361.301 388.795 361.651 388.509C362.034 388.196 362.465 387.765 362.945 387.228C363.909 386.151 365.161 384.552 366.76 382.38C369.96 378.035 374.624 371.298 381.295 361.608L392.263 348.646L392.295 348.608L392.324 348.567C396.131 343.038 398.483 339.422 399.671 337.347C399.969 336.827 400.203 336.39 400.37 336.034C400.521 335.711 400.666 335.359 400.708 335.048C400.725 334.926 400.768 334.551 400.528 334.197C400.198 333.71 399.675 333.695 399.418 333.74C399.186 333.782 398.995 333.885 398.883 333.953C398.753 334.031 398.623 334.126 398.497 334.225C397.556 334.972 395.787 336.887 393.561 339.466C391.307 342.078 388.515 345.454 385.498 349.199C379.466 356.689 372.519 365.676 367.159 373.019C364.48 376.688 362.188 379.959 360.603 382.432C359.812 383.665 359.184 384.721 358.77 385.539C358.565 385.945 358.397 386.322 358.291 386.648C358.239 386.811 358.193 386.988 358.171 387.167C358.152 387.331 358.141 387.584 358.237 387.849L358.238 387.851C358.394 388.281 358.676 388.628 359.06 388.858C359.426 389.077 359.829 389.157 360.198 389.17Z" fill="#FFDBD4" stroke="#F28774" stroke-width="2"/>
<path d="M554.86 410.389C544.016 401.517 530.071 396.327 514.965 396.671C493.074 397.17 474.147 409.169 463.825 426.763L491.721 439.576C502.042 421.981 520.969 409.982 542.861 409.483C546.959 409.39 550.972 409.704 554.86 410.389Z" fill="#F5F5F5" stroke="#F5F5F5" stroke-width="0.833333" stroke-linejoin="round"/>
<path d="M463.826 426.763C458.579 424.145 452.771 422.851 446.91 422.993C434.112 423.285 423.023 430.204 416.847 440.395L444.743 453.208C450.919 443.016 462.008 436.097 474.805 435.806C479.879 435.683 484.922 436.636 489.602 438.602L491.721 439.575C491.025 439.228 490.319 438.903 489.602 438.602L463.826 426.763Z" fill="#F5F5F5"/>
<path d="M489.602 438.602C484.922 436.636 479.879 435.683 474.805 435.806C462.008 436.097 450.919 443.016 444.743 453.208L416.847 440.395C423.023 430.204 434.112 423.285 446.91 422.993C452.771 422.851 458.579 424.145 463.826 426.763L489.602 438.602ZM489.602 438.602L491.721 439.575C491.025 439.228 490.319 438.903 489.602 438.602Z" stroke="#F5F5F5" stroke-width="0.833333" stroke-linejoin="round"/>
<path d="M424.518 521.623L396.14 508.578C384.437 502.831 376.263 490.921 375.945 476.987C375.491 457.061 391.276 440.54 411.201 440.086C413.088 440.043 414.975 440.146 416.846 440.396L444.742 453.209C442.871 452.959 440.984 452.856 439.097 452.899C419.17 453.353 403.386 469.875 403.84 489.8C404.162 503.925 412.558 515.97 424.518 521.623Z" fill="#F5F5F5" stroke="#F5F5F5" stroke-width="0.833333" stroke-linejoin="round"/>
<path d="M629.502 484.658C629.956 504.583 614.172 521.105 594.246 521.559L440.737 525.056C420.811 525.51 404.29 509.725 403.836 489.799C403.382 469.874 419.167 453.353 439.093 452.899C440.98 452.855 442.867 452.959 444.738 453.208C450.914 443.017 462.004 436.098 474.8 435.806C480.662 435.664 486.47 436.958 491.716 439.576C502.037 421.981 520.964 409.983 542.856 409.484C569.952 408.867 593.313 426.056 601.744 450.355C617.349 454.041 629.12 467.881 629.502 484.658Z" fill="white" stroke="#F5F5F5" stroke-width="2" stroke-linejoin="round"/>
<path d="M530.814 262.485C575.285 203.165 569.861 135.693 558.092 134.563C538.661 132.696 504.097 145.655 481.272 163.218C467.889 173.516 456.282 185.671 445.456 198.586C442.722 201.85 445.765 200.069 406.968 206.843C403.031 207.531 405.265 205.704 380.97 245.63C368.464 266.177 366.872 266.467 369.936 269.6C376.262 276.067 375.437 277.153 378.734 273.974C388.314 264.733 400.737 248.946 408.445 239.552C410.011 237.643 409.677 238.359 415.34 238.661C417.539 238.779 415.793 239.859 412.799 245.08C406.695 255.73 402.95 260.189 406.378 263.674C412.605 270.008 414.406 270.982 416.455 273.523C406.649 278.853 405.649 278.733 408.29 281.193C410.604 283.352 412.731 283.924 410.206 285.433C390.973 296.911 394.318 290.744 439.155 323.012C448.198 329.52 448.852 329.444 449.915 325.865C452.887 315.846 452.087 314.999 454.506 316.916C457.522 319.306 460.448 322.059 461.229 318.289C463.072 309.384 462.298 308.236 464.435 309.626C481.178 320.519 480.932 319.239 483.533 317.235C488.687 313.265 497.972 302.735 501.725 298.617C502.695 301.227 503.362 303.676 504.5 305.887C506.038 308.884 505.091 307.304 490.762 331.125C478.558 351.414 479.04 351.363 482.117 352.834C491.05 357.106 490.993 356.606 493.894 353.176L534.33 305.613C536.768 302.786 536.312 302.206 534.25 288.61C530.324 262.695 529.633 264.058 530.814 262.485ZM509.534 151.32C523.984 144.338 540.394 138.74 556.391 137.439C558.657 137.255 559.83 138.154 560.217 140.452C563.281 158.656 561.645 170.491 559.338 187.993C558.933 191.066 561.724 191.311 509.863 154.925C506.853 152.813 506.284 152.892 509.534 151.32ZM501.858 155.222C505.007 153.119 503.581 153.741 535.204 176.513C558.444 193.251 558.499 192.571 558.164 193.64C557.218 198.459 561.299 198.605 522.09 171.594C497.37 154.565 499.033 157.108 501.858 155.222ZM406.985 235.444C396.516 247.775 386.516 258.33 377.52 270.584C376.837 271.515 376.352 271.684 375.499 270.687C371.584 266.1 371.704 267.94 374.617 263.141C399.031 222.987 402.179 218.354 405.235 212.746C407.049 209.418 409.258 210.637 439.644 205.343C439.233 206.83 438.326 207.705 437.611 208.64C421.469 229.786 421.742 234.776 417.806 234.48C408.129 233.758 408.15 234.071 406.985 235.444ZM450.196 314.429C446.222 325.94 447.295 324.536 445.652 323.417C438.691 318.685 435.31 316.139 404.557 295.365C401.717 293.446 404.772 293.522 411.944 287.176C414.346 285.05 413.36 285.516 433.536 300.975C450.538 314.002 450.496 313.559 450.196 314.429ZM460.275 307.932C458.663 314.439 459.044 315.916 456.841 314.235C451.079 309.84 418.747 285.241 412.208 280.924C409.861 279.373 412.302 279.397 417.761 275.839C420.084 274.325 418.297 277.101 451.536 301.053C459.232 306.598 460.848 306.736 460.275 307.932ZM489.608 304.879C479.238 314.95 480.842 315.784 478.497 314.318C442.745 291.927 417.106 267.339 410.054 261.04C409.396 260.453 409.15 260.029 409.781 259.201C413.362 254.507 416.076 247.61 417.313 247.656C418.288 248.478 445.596 273.679 477.226 294.289C490.689 303.06 492.006 302.547 489.608 304.879ZM492.082 299.526C453.498 273.729 430.802 252.791 421.021 244.729C419.888 243.795 419.656 242.982 420.557 241.624C436.308 217.817 456.93 184.884 494.983 159.477C497.73 157.642 495.857 158.268 526.186 179.515C556.516 200.764 556.827 199.636 556.281 201.314C547.486 228.389 535.775 252.218 505.979 286.363C493.367 300.818 494.117 300.879 492.085 299.521L492.082 299.526ZM490.887 351.062C490.076 352.038 489.297 352.286 488.068 351.735C483.901 349.873 483.802 349.867 486.359 346.074C494.314 334.281 501.287 321.895 508.584 309.7C509.358 308.408 509.415 307.307 508.793 305.872C507.653 303.245 507.296 300.166 505.75 297.855C502.685 293.269 508.807 292.82 526.223 268.919C526.332 268.769 526.541 268.689 526.991 268.382C532.436 301.508 532.15 301.119 532.285 301.547C532.633 302.666 532.017 301.411 490.887 351.062Z" fill="#F28774"/>
<g clip-path="url(#clip1_1_1805)">
<path d="M364.683 393.838C360.643 352.642 324.079 322.391 282.804 326.199C252.512 328.994 228.072 349.359 218.619 376.303C216.348 376.304 214.078 376.41 211.816 376.619C171.221 380.365 141.35 416.308 145.096 456.902C148.841 497.496 184.786 527.367 225.379 523.622C238.962 522.368 251.345 517.511 261.669 510.079C276.665 539.906 308.823 559.037 344.075 555.785C390.054 551.543 423.889 510.831 419.647 464.853C416.567 431.473 394.265 404.494 364.683 393.838Z" fill="white" stroke="#F28774" stroke-width="3" stroke-linejoin="round"/>
<path d="M282.799 326.2L226.551 331.39C196.259 334.185 171.819 354.551 162.366 381.494L218.617 376.303C228.069 349.361 252.508 328.996 282.799 326.2Z" fill="#F5F5F5" stroke="#F28774" stroke-width="3" stroke-linejoin="round"/>
<path d="M155.564 381.812C157.848 381.601 160.117 381.497 162.367 381.495L205.067 377.554C209.537 376.727 214.073 376.308 218.618 376.304L205.067 377.554C167.966 384.427 141.562 418.595 145.096 456.904C147.984 488.207 169.869 512.306 196.739 520.647C188.162 525.16 178.779 527.936 169.127 528.814C128.533 532.559 92.5894 502.688 88.8441 462.095C85.0988 421.501 114.971 385.557 155.564 381.812Z" fill="#F5F5F5"/>
<path d="M205.067 377.554L162.367 381.495C160.117 381.497 157.848 381.601 155.564 381.812C114.971 385.557 85.0988 421.501 88.8441 462.095C92.5894 502.688 128.533 532.559 169.127 528.814C178.779 527.936 188.162 525.16 196.739 520.647C169.869 512.306 147.984 488.207 145.096 456.904C141.562 418.595 167.966 384.427 205.067 377.554ZM205.067 377.554C209.537 376.727 214.073 376.308 218.618 376.304L205.067 377.554Z" stroke="#F28774" stroke-width="3" stroke-linejoin="round"/>
</g>
<g opacity="0.2" clip-path="url(#clip2_1_1805)">
<path d="M340.336 92.325C334.372 68.8627 310.568 54.5929 287.04 60.4301C269.772 64.714 257.435 78.6413 254.343 95.0515C253.03 95.2526 251.727 95.5137 250.438 95.834C227.297 101.575 213.192 124.987 218.933 148.127C224.674 171.267 248.087 185.372 271.227 179.631C278.97 177.71 285.701 173.811 291.015 168.605C302.313 184.529 322.591 192.758 342.686 187.772C368.895 181.27 384.872 154.752 378.369 128.542C373.649 109.515 358.379 95.8804 340.336 92.325Z" fill="white" stroke="#1B1B1B" stroke-linejoin="round"/>
<path d="M287.038 60.4298L254.974 68.3844C237.707 72.6684 225.37 86.5964 222.278 103.007L254.343 95.0508C257.434 78.6414 269.771 64.7142 287.038 60.4298Z" fill="#F5F5F5" stroke="#1B1B1B" stroke-linejoin="round"/>
<path d="M262.398 180.882C262.398 180.882 280.471 202.441 310.617 195.729C316.083 194.379 321.274 192.094 325.961 188.974C311.798 187.638 299.214 180.165 291.012 168.605C285.697 173.81 278.848 177.974 271.223 179.631C263.598 181.288 262.398 180.882 262.398 180.882Z" fill="#F5F5F5" stroke="#1B1B1B" stroke-width="0.833333" stroke-linejoin="round"/>
<path d="M218.368 103.79C219.67 103.467 220.972 103.207 222.273 103.007L246.613 96.9679C249.125 96.0961 251.711 95.4546 254.338 95.0514L246.613 96.9679C225.768 104.21 213.512 126.29 218.929 148.127C223.356 165.972 238.132 177.977 254.402 180.433C249.841 183.798 244.66 186.229 239.157 187.587C216.017 193.328 192.604 179.223 186.864 156.083C181.123 132.943 195.228 109.53 218.368 103.79Z" fill="#F5F5F5"/>
<path d="M246.613 96.9679L222.273 103.007C220.972 103.207 219.67 103.467 218.368 103.79C195.228 109.53 181.123 132.943 186.864 156.083C192.604 179.223 216.017 193.328 239.157 187.587C244.66 186.229 249.841 183.798 254.402 180.433C238.132 177.977 223.356 165.972 218.929 148.127C213.512 126.29 225.768 104.21 246.613 96.9679ZM246.613 96.9679C249.125 96.0961 251.711 95.4546 254.338 95.0514L246.613 96.9679Z" stroke="#1B1B1B" stroke-linejoin="round"/>
</g>
<defs>
<clipPath id="clip0_1_1805">
<rect width="180.732" height="180.732" fill="white" transform="translate(515 278.519) rotate(-13.9332)"/>
</clipPath>
<clipPath id="clip1_1_1805">
<rect width="350.333" height="350.333" fill="white" transform="translate(60.7773 273.187) rotate(-5.27139)"/>
</clipPath>
<clipPath id="clip2_1_1805">
<rect width="204.887" height="204.887" fill="white" transform="translate(154 49.335) rotate(-13.9332)"/>
</clipPath>
</defs>
</svg>
