<svg width="390" height="260" viewBox="0 0 390 260" fill="none" xmlns="http://www.w3.org/2000/svg">
<g clip-path="url(#clip0_1_2130)">
<path d="M333.948 165.465C323.259 123.415 280.597 97.8411 238.429 108.302C207.482 115.98 185.372 140.941 179.83 170.351C177.477 170.712 175.141 171.18 172.831 171.754C131.358 182.043 106.08 224.002 116.369 265.473C126.658 306.946 168.618 332.224 210.09 321.935C223.966 318.493 236.031 311.504 245.555 302.174C265.803 330.714 302.144 345.461 338.159 336.526C385.132 324.872 413.765 277.347 402.111 230.373C393.651 196.272 366.284 171.837 333.948 165.465Z" fill="white" stroke="#F28774" stroke-width="3" stroke-linejoin="round"/>
<path d="M238.425 108.304L180.961 122.56C150.014 130.238 127.903 155.2 122.362 184.61L179.829 170.352C185.37 140.943 207.479 115.982 238.425 108.304Z" fill="#F5F5F5" stroke="#F28774" stroke-width="3" stroke-linejoin="round"/>
<path d="M115.365 186.012C117.698 185.433 120.033 184.968 122.365 184.61L165.987 173.786C170.488 172.224 175.122 171.074 179.832 170.352L165.987 173.786C128.628 186.765 106.662 226.338 116.372 265.475C124.306 297.455 150.786 318.972 179.945 323.373C171.771 329.404 162.486 333.761 152.624 336.194C111.151 346.483 69.1919 321.205 58.9033 279.733C48.6146 238.262 73.8938 196.301 115.365 186.012Z" fill="#F5F5F5"/>
<path d="M165.987 173.786L122.365 184.61C120.033 184.968 117.698 185.433 115.365 186.012C73.8938 196.301 48.6146 238.262 58.9033 279.733C69.1919 321.205 111.151 346.483 152.624 336.194C162.486 333.761 171.771 329.404 179.945 323.373C150.786 318.972 124.306 297.455 116.372 265.475C106.662 226.338 128.628 186.765 165.987 173.786ZM165.987 173.786C170.488 172.224 175.122 171.074 179.832 170.352L165.987 173.786Z" stroke="#F28774" stroke-width="3" stroke-linejoin="round"/>
</g>
<defs>
<clipPath id="clip0_1_2130">
<rect width="367.2" height="367.2" fill="white" transform="translate(0 88.4185) rotate(-13.9332)"/>
</clipPath>
</defs>
</svg>
