<svg width="336" height="260" viewBox="0 0 336 260" fill="none" xmlns="http://www.w3.org/2000/svg">
<rect x="1.13139" y="74.7832" width="184.475" height="185.615" rx="15.4284" transform="rotate(-8 1.13139 74.7832)" fill="white"/>
<rect x="1.13139" y="74.7832" width="184.475" height="185.615" rx="15.4284" transform="rotate(-8 1.13139 74.7832)" stroke="#F28774" stroke-width="2"/>
<path d="M22.0616 104.589L20.4154 92.8754L25.1496 92.2101C25.2635 92.1941 25.4052 92.1797 25.5749 92.1669C25.7437 92.1487 25.906 92.1425 26.0616 92.1483C26.7269 92.1598 27.3004 92.306 27.7822 92.5866C28.2695 92.8665 28.6582 93.2516 28.9482 93.7417C29.2383 94.2318 29.4276 94.7914 29.516 95.4204C29.6471 96.3531 29.5216 97.192 29.1397 97.9369C28.757 98.6764 28.1002 99.1973 27.1694 99.4995L26.4895 99.678L23.1707 100.144L23.7617 104.35L22.0616 104.589ZM28.9107 103.626L25.9307 99.1842L27.5853 98.5037L30.8548 103.353L28.9107 103.626ZM22.9443 98.5339L25.9133 98.1166C26.0218 98.1013 26.1403 98.0792 26.269 98.05C26.403 98.0201 26.5278 97.9832 26.6433 97.9393C26.9789 97.8092 27.2372 97.6209 27.4182 97.3742C27.5985 97.1222 27.7145 96.8459 27.7663 96.5456C27.8181 96.2452 27.8238 95.9513 27.7834 95.6639C27.743 95.3765 27.6569 95.0983 27.5251 94.8292C27.3925 94.5548 27.2052 94.324 26.9632 94.1368C26.7205 93.9442 26.4199 93.8316 26.0614 93.799C25.9375 93.7832 25.807 93.7795 25.6699 93.7877C25.5382 93.7951 25.4182 93.8064 25.3097 93.8217L22.3407 94.239L22.9443 98.5339ZM36.5732 102.798C35.7001 102.921 34.9061 102.839 34.1911 102.552C33.4809 102.259 32.8933 101.797 32.4286 101.166C31.9684 100.528 31.6747 99.7566 31.5475 98.851C31.4126 97.8912 31.4745 97.0336 31.7334 96.2784C31.9976 95.5223 32.4253 94.9065 33.0166 94.4307C33.6078 93.955 34.3318 93.657 35.1886 93.5365C36.0834 93.4108 36.8746 93.5125 37.5623 93.8416C38.2493 94.1654 38.8011 94.6878 39.2176 95.409C39.6396 96.1294 39.892 97.0202 39.9748 98.0814L38.2747 98.3203L38.1878 97.7021C38.0337 96.6841 37.7326 95.9578 37.2844 95.5231C36.8416 95.0876 36.2352 94.924 35.4651 95.0322C34.6138 95.1519 34.0116 95.5102 33.6586 96.1073C33.3057 96.7044 33.2005 97.51 33.343 98.524C33.4786 99.4893 33.798 100.208 34.3011 100.679C34.8034 101.145 35.4586 101.321 36.2666 101.207C36.7981 101.132 37.2395 100.949 37.591 100.656C37.9472 100.357 38.2021 99.9674 38.3557 99.4868L40.0976 99.7812C39.8664 100.616 39.4343 101.298 38.8011 101.83C38.1672 102.356 37.4246 102.679 36.5732 102.798ZM32.8573 99.0817L32.671 97.7558L38.9425 96.8744L39.1288 98.2003L32.8573 99.0817ZM45.7423 101.501C44.674 101.651 43.7705 101.538 43.0317 101.161C42.293 100.783 41.7875 100.177 41.5152 99.3414L43.2182 98.8283C43.3907 99.2686 43.6908 99.5942 44.1186 99.805C44.5511 100.01 45.0601 100.071 45.6458 99.9885C46.1773 99.9138 46.5769 99.7471 46.8446 99.4883C47.1178 99.2287 47.2277 98.9091 47.1744 98.5295C47.1431 98.3071 47.0638 98.1358 46.9363 98.0155C46.8134 97.889 46.5751 97.787 46.2214 97.7095C45.8676 97.632 45.3334 97.5495 44.6188 97.4619C43.8376 97.3726 43.209 97.248 42.7331 97.0882C42.2619 96.9222 41.9104 96.7034 41.6787 96.4318C41.4516 96.154 41.308 95.8009 41.2478 95.3725C41.1731 94.8411 41.2489 94.3576 41.4753 93.9221C41.7016 93.4866 42.0544 93.1246 42.5337 92.836C43.0184 92.5467 43.6051 92.3537 44.2938 92.2569C44.9662 92.1624 45.5803 92.1839 46.136 92.3215C46.6918 92.459 47.1598 92.7002 47.54 93.0449C47.9195 93.3842 48.1783 93.8096 48.3166 94.321L46.6204 94.8829C46.5013 94.4683 46.2565 94.1626 45.886 93.9658C45.5155 93.7691 45.0603 93.6975 44.5204 93.7513C44.0022 93.802 43.5968 93.9475 43.3043 94.1877C43.011 94.4224 42.888 94.7079 42.9352 95.0441C42.9627 95.2394 43.0456 95.3964 43.1839 95.5152C43.3277 95.6332 43.5846 95.7298 43.9546 95.805C44.3246 95.8802 44.8662 95.9562 45.5793 96.0329C46.3435 96.1191 46.9589 96.2482 47.4255 96.4204C47.8913 96.5872 48.2389 96.8176 48.4682 97.1117C48.7022 97.3995 48.8509 97.7685 48.9141 98.2186C49.0361 99.0863 48.8145 99.8114 48.2494 100.394C47.6897 100.976 46.854 101.345 45.7423 101.501ZM55.0024 100.208C54.1293 100.331 53.3353 100.249 52.6204 99.9622C51.9101 99.6694 51.3226 99.2073 50.8578 98.5759C50.3977 97.9382 50.104 97.1666 49.9767 96.261C49.8418 95.3011 49.9038 94.4436 50.1626 93.6883C50.4268 92.9323 50.8546 92.3164 51.4458 91.8407C52.037 91.365 52.761 91.0669 53.6178 90.9465C54.5126 90.8207 55.3038 90.9224 55.9916 91.2516C56.6785 91.5753 57.2303 92.0978 57.6469 92.8189C58.0689 93.5394 58.3212 94.4302 58.404 95.4913L56.7039 95.7303L56.6171 95.1121C56.4629 94.0941 56.1618 93.3677 55.7136 92.933C55.2708 92.4976 54.6644 92.3339 53.8944 92.4422C53.043 92.5618 52.4408 92.9202 52.0879 93.5173C51.7349 94.1143 51.6297 94.9199 51.7722 95.934C51.9079 96.8992 52.2272 97.6175 52.7303 98.0887C53.2327 98.5545 53.8878 98.7307 54.6958 98.6171C55.2273 98.5424 55.6687 98.3587 56.0202 98.066C56.3764 97.7671 56.6313 97.3773 56.7849 96.8968L58.5268 97.1911C58.2956 98.0255 57.8635 98.7083 57.2303 99.2397C56.5964 99.7657 55.8538 100.088 55.0024 100.208ZM51.2865 96.4916L51.1002 95.1657L57.3717 94.2843L57.558 95.6102L51.2865 96.4916ZM63.1353 99.0651C62.4845 99.1566 61.9228 99.1139 61.45 98.937C60.9764 98.7547 60.598 98.4816 60.3146 98.1178C60.0358 97.7477 59.8629 97.3241 59.7959 96.8469C59.7334 96.4022 59.7571 96.0007 59.8671 95.6424C59.9771 95.2841 60.1703 94.9666 60.4467 94.69C60.7222 94.4079 61.0748 94.1621 61.5043 93.9524C61.8787 93.7836 62.3066 93.6212 62.7879 93.4651C63.2692 93.309 63.7756 93.1548 64.3072 93.0027C64.8443 92.8498 65.3759 92.6977 65.9021 92.5463L65.3319 92.9748C65.2459 92.2846 65.0279 91.7954 64.6777 91.5073C64.3322 91.213 63.7934 91.1173 63.0613 91.2202C62.6004 91.285 62.1926 91.4529 61.8381 91.7239C61.4828 91.9895 61.2639 92.3797 61.1814 92.8945L59.5266 92.6294C59.6376 91.8451 59.9655 91.188 60.5104 90.658C61.0607 90.1272 61.8429 89.7905 62.8569 89.648C63.6433 89.5375 64.3456 89.577 64.9639 89.7666C65.587 89.95 66.0748 90.3128 66.4275 90.8549C66.6089 91.1225 66.7383 91.414 66.8158 91.7294C66.8933 92.0448 66.958 92.3868 67.0098 92.7556L67.7701 98.1649L66.2652 98.3764L65.9828 96.3672L66.3123 96.5864C66.0434 97.3099 65.6503 97.8766 65.1328 98.2867C64.62 98.6906 63.9541 98.95 63.1353 99.0651ZM63.2408 97.6319C63.7234 97.564 64.1264 97.4217 64.4499 97.2048C64.7725 96.9825 65.0209 96.7236 65.1951 96.4282C65.3692 96.1327 65.4687 95.8367 65.4933 95.5402C65.5489 95.2669 65.5593 94.9668 65.5244 94.6399C65.495 94.3123 65.4665 94.0508 65.4391 93.8556L66.0208 93.9812C65.4954 94.138 65.0176 94.2798 64.5875 94.4066C64.1574 94.5334 63.7679 94.6545 63.4192 94.7699C63.0751 94.8791 62.7708 94.9965 62.5065 95.1221C62.2847 95.2363 62.0897 95.3632 61.9213 95.503C61.7583 95.642 61.6341 95.8005 61.5485 95.9784C61.4683 96.1556 61.4446 96.3608 61.4774 96.594C61.5094 96.8217 61.596 97.0252 61.7374 97.2044C61.8779 97.3782 62.0728 97.5057 62.322 97.5868C62.5712 97.6679 62.8774 97.6829 63.2408 97.6319ZM69.8823 97.868L68.6476 89.083L70.1606 88.8704L70.4601 91.0016L70.2098 90.7547C70.2786 90.4575 70.3834 90.1801 70.5241 89.9225C70.6641 89.6595 70.8374 89.4361 71.0438 89.2523C71.2432 89.0583 71.4725 88.8989 71.7314 88.774C71.995 88.643 72.2694 88.5491 72.5545 88.4925C72.8389 88.4304 73.1173 88.4051 73.3899 88.4165L73.614 90.0109C73.3159 89.9753 72.9929 89.9986 72.645 90.0807C72.3025 90.162 71.9982 90.3181 71.732 90.5491C71.4806 90.7669 71.2915 91.0147 71.1646 91.2924C71.0432 91.5694 70.9693 91.8701 70.943 92.1945C70.9159 92.5135 70.9268 92.8466 70.9756 93.1936L71.5986 97.6268L69.8823 97.868ZM79.8071 96.722C78.9069 96.8486 78.1141 96.7554 77.4286 96.4425C76.7432 96.1296 76.1832 95.647 75.7487 94.9947C75.3196 94.3417 75.0398 93.5708 74.9094 92.6823C74.7875 91.7759 74.8487 90.9516 75.0927 90.2095C75.3361 89.4619 75.7471 88.8456 76.326 88.3606C76.9048 87.8755 77.6389 87.5705 78.5283 87.4455C79.4881 87.3106 80.3405 87.4342 81.0854 87.8161C81.8358 88.1973 82.3777 88.7875 82.7112 89.5867L81.0879 90.3125C80.8504 89.8427 80.5201 89.4992 80.097 89.2822C79.6785 89.059 79.2226 88.9821 78.7291 89.0514C78.1705 89.1299 77.731 89.3272 77.4104 89.6432C77.0891 89.9538 76.8737 90.3491 76.7641 90.829C76.6546 91.3089 76.6383 91.842 76.7152 92.4285C76.8479 93.3333 77.1569 94.0364 77.6421 94.5378C78.1327 95.0385 78.7793 95.2324 79.5819 95.1196C80.1296 95.0426 80.554 94.8558 80.8552 94.5591C81.161 94.2562 81.3703 93.8563 81.4829 93.3593L83.2645 93.5237C83.0975 94.4209 82.7156 95.1465 82.1188 95.7004C81.5213 96.2489 80.7507 96.5894 79.8071 96.722ZM91.4269 94.8401L90.8199 90.5208C90.7719 90.1792 90.6929 89.8336 90.583 89.4841C90.4777 89.1284 90.322 88.8074 90.1158 88.5212C89.9151 88.2342 89.655 88.0163 89.3355 87.8677C89.0214 87.7183 88.6312 87.6764 88.1648 87.7419C87.8612 87.7846 87.581 87.8765 87.3243 88.0176C87.0669 88.1534 86.8508 88.3469 86.676 88.5982C86.5066 88.8487 86.3877 89.164 86.3195 89.5441C86.2567 89.9234 86.2619 90.3734 86.335 90.894L85.2215 90.644C85.1095 89.8469 85.1599 89.1237 85.3728 88.4744C85.585 87.8197 85.9463 87.2823 86.4569 86.8621C86.9674 86.442 87.6185 86.1763 88.4103 86.065C89.0176 85.9797 89.5411 86.0056 89.9807 86.1429C90.4202 86.2802 90.7899 86.4909 91.0898 86.7751C91.3943 87.053 91.6406 87.3695 91.8288 87.7247C92.0169 88.0798 92.1606 88.4329 92.2597 88.7839C92.3588 89.135 92.4274 89.4461 92.4655 89.7172L93.1514 94.5978L91.4269 94.8401ZM85.253 95.7078L83.6068 83.9945L85.1279 83.7807L86.0162 90.101L86.2196 90.0724L86.9775 95.4655L85.253 95.7078Z" fill="#262626"/>
<rect x="30.3779" y="172.025" width="21.9046" height="69.8208" rx="10.9523" transform="rotate(-8 30.3779 172.025)" fill="#F5F5F5"/>
<rect x="60.449" y="144.987" width="20.5355" height="91.7254" rx="10.2678" transform="rotate(-8 60.449 144.987)" fill="#FFDBD4" stroke="#F28774" stroke-width="1.36904"/>
<rect x="91.9478" y="137.945" width="22" height="95" rx="11" transform="rotate(-8 91.9478 137.945)" fill="#F5F5F5"/>
<rect x="121.796" y="113.554" width="22" height="115" rx="11" transform="rotate(-8 121.796 113.554)" fill="#F5F5F5"/>
<rect x="158.464" y="137.685" width="22" height="86" rx="11" transform="rotate(-8 158.464 137.685)" fill="#F5F5F5"/>
<path d="M204.251 107.343L213.21 115.062C214.887 116.507 215.075 119.038 213.63 120.715L206.26 129.269C204.815 130.946 202.284 131.134 200.606 129.689L191.648 121.97L204.251 107.343Z" fill="#FFDBD4" stroke="#F28774" stroke-width="2.40456"/>
<rect x="218.362" y="114.914" width="116.582" height="27.125" rx="5.74584" transform="rotate(40.7495 218.362 114.914)" fill="#FFDBD4" stroke="#F28774" stroke-width="2.40456"/>
<circle cx="156.619" cy="79.6177" r="54.4143" transform="rotate(40.7495 156.619 79.6177)" fill="white" stroke="#F28774" stroke-width="4.07837"/>
</svg>
