<svg width="34" height="34" viewBox="0 0 34 34" fill="none" xmlns="http://www.w3.org/2000/svg">
<path d="M31.9987 27.4997V16.4997C32.9987 15.9997 33.6654 14.833 33.6654 13.6663C33.6654 11.833 32.1654 10.333 30.332 10.333C29.1654 10.333 27.9987 10.9997 27.4987 11.9997H21.9987V6.49967C22.9987 5.99967 23.6654 4.83301 23.6654 3.66634C23.6654 1.83301 22.1654 0.333008 20.332 0.333008C19.1654 0.333008 17.9987 0.999674 17.4987 1.99967H6.4987C5.9987 0.999674 4.83203 0.333008 3.66536 0.333008C1.83203 0.333008 0.332031 1.83301 0.332031 3.66634C0.332031 4.83301 0.998698 5.99967 1.9987 6.49967V17.4997C0.998698 17.9997 0.332031 19.1663 0.332031 20.333C0.332031 22.1663 1.83203 23.6663 3.66536 23.6663C4.83203 23.6663 5.9987 22.9997 6.4987 21.9997H11.9987V27.4997C10.9987 27.9997 10.332 29.1663 10.332 30.333C10.332 32.1663 11.832 33.6663 13.6654 33.6663C14.832 33.6663 15.9987 32.9997 16.4987 31.9997H27.4987C27.9987 32.9997 29.1654 33.6663 30.332 33.6663C32.1654 33.6663 33.6654 32.1663 33.6654 30.333C33.6654 29.1663 32.9987 27.9997 31.9987 27.4997ZM6.4987 18.6663C6.16536 18.1663 5.83203 17.833 5.33203 17.4997V6.49967C5.83203 6.16634 6.16536 5.83301 6.4987 5.33301H17.4987C17.832 5.83301 18.1654 6.16634 18.6654 6.49967V11.9997H16.4987C15.9987 10.9997 14.832 10.333 13.6654 10.333C11.832 10.333 10.332 11.833 10.332 13.6663C10.332 14.833 10.9987 15.9997 11.9987 16.4997V18.6663H6.4987ZM18.6654 17.4997C18.1654 17.833 17.832 18.1663 17.4987 18.6663H15.332V16.4997C15.832 16.1663 16.1654 15.833 16.4987 15.333H18.6654V17.4997ZM17.4987 21.9997C17.9987 22.9997 19.1654 23.6663 20.332 23.6663C22.1654 23.6663 23.6654 22.1663 23.6654 20.333C23.6654 19.1663 22.9987 17.9997 21.9987 17.4997V15.333H27.4987C27.832 15.833 28.1654 16.1663 28.6654 16.4997V27.4997C28.1654 27.833 27.832 28.1663 27.4987 28.6663H16.4987C16.1654 28.1663 15.832 27.833 15.332 27.4997V21.9997H17.4987Z" fill="#F28774"/>
</svg>
