<svg width="34" height="34" viewBox="0 0 34 34" fill="none" xmlns="http://www.w3.org/2000/svg">
<path d="M23.6693 8.66634H7.0026C6.0026 8.66634 5.33594 9.33301 5.33594 10.333V14.4997H17.8359C18.8359 14.4997 19.5026 15.1663 19.5026 16.1663V28.6663H23.6693C24.6693 28.6663 25.3359 27.9997 25.3359 26.9997V10.333C25.3359 9.33301 24.6693 8.66634 23.6693 8.66634ZM15.3359 16.9997H2.0026C1.0026 16.9997 0.335938 17.6663 0.335938 18.6663V31.9997C0.335938 32.9997 1.0026 33.6663 2.0026 33.6663H15.3359C16.3359 33.6663 17.0026 32.9997 17.0026 31.9997V18.6663C17.0026 17.6663 16.3359 16.9997 15.3359 16.9997ZM32.0026 0.333008H12.0026C11.0026 0.333008 10.3359 0.999674 10.3359 1.99967V6.16634H26.1693C27.1693 6.16634 27.8359 6.83301 27.8359 7.83301V23.6663H32.0026C33.0026 23.6663 33.6693 22.9997 33.6693 21.9997V1.99967C33.6693 0.999674 33.0026 0.333008 32.0026 0.333008Z" fill="#F28774"/>
</svg>
